<svg version="1.2" xmlns="http://www.w3.org/2000/svg" viewBox="0 0 1080 1080" width="1080" height="1080">
	<style>
		.s0 { fill: #464646 } 
		.s1 { fill: #282C33 } 
		.s2 { fill: none;stroke: #C778DD;stroke-width: 24 } 
	</style>
	<path id="shadow" fill-rule="evenodd" class="s0" d="m580.8 604l37 1-35 157-35 1zm36.7-522l42.3-28 248 8 87 71-140 629h-35l8.1-42.6 101.3-457.7 21-100.8-84.9-69.5zm103.5 354.9l-101.3-1.1 43.8-187.1 36.5-0.4-36.2 158.6h60zm17.3 415.7l-165.7-3.6-293.6-1.8 10.3-46.2 38-167.3 33.3-150.6 22.5-107.1 31.9-161.3 46.2-31.9-142.1 639.7 501.9 0.5-235.6 177h-41.4z"/>
	<path id="fill" fill-rule="evenodd" class="s1" d="m542.9 788h-179.9l139-628.6 118.1-79.3 247.3 8.5 88.4 70.8-140 628.6h-179.9l40.9-180.9h-93zm174.7-354.6l34.8-179.9h-86.9l-40.9 179.9zm-492.1-97.1l197.9-126.8-140.2 634.6 469.5 3.6-236.4 177.3h-360.8l-69.5-87.9z"/>
	<path id="stroke" fill-rule="evenodd" class="s2" d="m542.9 788h-179.9l139-628.6 118.1-79.3 247.3 8.5 88.4 70.8-140 628.6h-179.9l40.9-180.9h-93zm174.7-354.6l34.8-179.9h-86.9l-40.9 179.9zm-492.1-97.1l197.9-126.8-140.2 634.6 469.5 3.6-236.4 177.3h-360.8l-69.5-87.9z"/>
</svg>